<?xml version="1.0" standalone="no"?>
<!DOCTYPE svg PUBLIC "-//W3C//DTD SVG 20010904//EN"
 "http://www.w3.org/TR/2001/REC-SVG-20010904/DTD/svg10.dtd">
<svg version="1.0" xmlns="http://www.w3.org/2000/svg"
 width="280.000000pt" height="250.000000pt" viewBox="0 0 279.000000 300.000000"
 preserveAspectRatio="xMidYMid meet">

<g transform="translate(0.000000,300.000000) scale(0.100000,-0.100000)"
fill="#fff" opacity="0.2" stroke="none">
<path d="M1125 2995 c-5 -2 -32 -6 -58 -10 -90 -12 -39 -17 60 -6 107 12 236
2 178 -14 -16 -4 -56 -21 -88 -37 l-58 -29 -67 28 c-90 37 -201 38 -280 3 -62
-27 -82 -51 -82 -98 0 -27 9 -43 39 -73 21 -22 45 -39 52 -39 8 0 -1 10 -18
23 -18 12 -40 37 -50 55 -16 30 -16 35 -3 60 9 15 33 37 55 50 35 20 50 22
130 19 65 -2 104 -9 138 -25 l48 -21 -69 -66 c-39 -36 -86 -89 -107 -119 l-36
-53 -122 -7 c-90 -4 -123 -3 -128 6 -6 9 -10 8 -14 -4 -4 -9 -37 -29 -74 -43
-75 -28 -150 -72 -195 -114 l-28 -26 6 25 c6 19 1 16 -16 -12 -13 -21 -42 -61
-64 -90 -41 -52 -87 -122 -68 -103 6 6 30 36 53 68 24 32 45 56 47 54 2 -2 -3
-37 -12 -78 -9 -41 -14 -102 -12 -137 4 -60 3 -65 -24 -83 -31 -22 -78 -96
-78 -122 0 -10 -7 -17 -16 -17 -22 0 -14 52 20 127 16 34 20 51 11 43 -17 -14
-55 -112 -55 -143 0 -18 -11 -26 -53 -40 -28 -10 -57 -18 -64 -19 -6 -1 -14
-17 -18 -35 -8 -44 13 -77 57 -91 27 -9 29 -9 14 1 -38 24 -57 49 -54 69 3 24
41 54 79 63 25 6 27 4 32 -37 3 -23 22 -73 41 -111 34 -65 35 -69 21 -97 -21
-40 -45 -146 -45 -197 0 -24 -4 -43 -9 -43 -11 0 -46 95 -65 175 -8 33 -15 51
-15 40 -1 -33 28 -135 55 -195 14 -30 32 -93 40 -140 13 -78 52 -216 59 -208
1 2 -8 44 -21 93 -12 50 -23 101 -23 115 0 24 0 25 15 5 8 -11 18 -32 21 -47
3 -15 9 -26 13 -23 4 2 28 -20 53 -49 43 -50 45 -56 34 -80 -7 -14 -18 -26
-26 -26 -11 0 -11 -3 -1 -15 7 -8 10 -21 7 -29 -3 -8 -2 -29 3 -47 6 -20 6
-38 -1 -50 -7 -14 -6 -19 3 -20 7 -1 18 -2 23 -3 6 -1 32 -16 59 -34 39 -25
61 -32 97 -32 26 0 51 4 54 10 3 5 14 10 24 10 14 0 23 -14 35 -50 9 -28 30
-73 47 -101 22 -34 29 -57 25 -73 -4 -15 -1 -26 7 -29 6 -2 9 -7 5 -11 -8 -10
-105 40 -135 70 -13 13 -30 24 -38 24 -7 0 -34 24 -61 52 -26 29 -42 43 -36
32 21 -40 120 -121 199 -162 59 -30 86 -52 110 -86 33 -47 115 -101 169 -112
27 -5 31 -11 42 -61 10 -50 9 -61 -8 -100 -11 -24 -28 -55 -39 -69 -20 -26
-19 -49 3 -57 9 -4 11 2 9 17 -3 13 8 43 28 75 34 55 41 97 26 159 l-9 32 54
0 c63 0 116 23 177 74 72 60 93 68 135 51 51 -22 131 -19 181 6 l42 21 55 -56
56 -55 -32 -10 c-66 -22 -112 -24 -139 -7 -23 16 -25 16 -23 -1 1 -14 -10 -19
-53 -25 -139 -21 -200 -82 -221 -218 -4 -30 -11 -63 -15 -73 -6 -13 -4 -18 7
-15 7 2 31 -14 52 -34 22 -21 56 -45 77 -55 22 -9 39 -24 39 -32 0 -13 2 -13
13 1 6 9 28 18 47 21 19 3 41 7 49 9 23 5 62 41 77 70 17 32 18 101 3 131 -17
32 -60 77 -91 93 -94 49 -205 -36 -178 -136 25 -93 146 -125 185 -49 17 32 7
72 -20 83 -28 10 -31 7 -7 -10 30 -20 30 -68 0 -88 -63 -44 -148 16 -148 105
0 42 56 99 97 99 43 0 115 -40 140 -79 39 -58 23 -146 -35 -191 -30 -24 -129
-27 -171 -6 -108 56 -131 192 -47 280 36 38 67 49 213 71 57 8 126 24 155 35
32 12 56 16 62 10 5 -5 -22 -18 -69 -31 -43 -13 -73 -25 -67 -27 6 -2 41 7 79
19 54 17 89 21 171 20 59 -1 119 3 140 10 52 17 118 64 139 99 22 39 33 38 33
-2 0 -18 18 -84 40 -147 57 -163 53 -216 -17 -263 -16 -10 -22 -18 -14 -18 7
0 31 17 52 39 51 50 51 87 3 229 -28 81 -38 127 -40 188 l-3 81 74 47 c41 26
75 50 75 53 0 5 -55 -27 -102 -59 -36 -25 -38 -24 -38 21 0 55 57 174 79 166
9 -4 34 -9 56 -12 22 -3 46 -11 54 -17 11 -8 15 -8 18 2 3 6 11 12 18 12 7 0
36 16 64 35 28 19 58 35 68 35 13 0 14 3 6 11 -16 16 -5 111 15 126 14 12 14
13 -1 13 -9 0 -17 7 -17 15 0 8 -3 15 -7 15 -5 0 -19 16 -32 35 -13 19 -30 35
-37 35 -8 0 -14 1 -14 3 0 1 36 39 79 84 74 77 79 81 84 57 8 -45 -1 -111 -23
-155 -14 -31 -16 -38 -4 -24 26 32 44 81 44 121 0 21 6 60 14 88 41 150 76
309 75 346 -1 14 -7 -10 -15 -52 -8 -42 -19 -90 -26 -105 -10 -24 -12 -25 -15
-8 -2 11 -13 49 -24 85 l-20 66 40 84 c29 58 41 97 41 127 0 50 11 54 77 23
68 -30 69 -93 3 -120 -17 -7 -29 -15 -26 -17 8 -9 77 30 87 49 6 11 8 36 4 57
-6 37 -7 38 -76 56 -45 11 -73 24 -76 34 -9 32 -47 112 -55 117 -4 3 4 -20 18
-51 32 -70 29 -107 -4 -53 -27 44 -85 92 -136 113 -20 9 -36 19 -36 24 0 5 15
26 34 45 18 20 30 39 26 41 -5 3 -5 20 0 38 17 65 8 88 -59 152 -35 33 -74 80
-87 105 -12 25 -35 59 -49 75 -18 21 -15 12 10 -27 21 -31 34 -61 31 -66 -3
-5 1 -15 9 -22 25 -21 17 -25 -35 -22 -27 2 -65 -2 -85 -8 -35 -12 -38 -11
-65 21 -16 19 -29 39 -30 44 0 14 -119 36 -150 28 -14 -3 -31 -11 -38 -16 -10
-8 -12 -5 -7 14 5 22 0 28 -44 53 -28 15 -51 31 -51 35 0 5 -12 11 -27 14 -16
4 -76 23 -135 43 -123 41 -124 44 -78 118 33 52 28 52 90 2 16 -13 13 -8 -8
15 -39 43 -36 47 58 79 80 27 211 25 254 -4 53 -34 54 -99 3 -154 l-22 -25 22
12 c34 18 63 61 63 95 0 69 -54 105 -174 115 -90 8 -136 -1 -216 -45 l-49 -26
-30 21 c-16 12 -56 34 -88 49 l-58 27 120 5 120 5 -75 7 c-41 4 -107 3 -146
-1 -39 -5 -93 -5 -120 0 -49 8 -190 11 -209 4z m400 -79 c41 -20 75 -43 75
-50 0 -18 -21 -36 -43 -36 -16 0 -18 -5 -13 -32 10 -57 -1 -64 -91 -50 -43 6
-109 15 -146 18 l-69 7 6 28 c4 20 2 29 -8 29 -15 0 -66 37 -66 48 0 8 104 59
148 73 53 17 128 4 207 -35z m-335 -103 c30 -48 40 -77 18 -55 -7 7 -42 12
-92 11 -91 0 -84 -7 37 -34 l78 -17 -3 -41 c-2 -32 -9 -44 -26 -53 -19 -9 -20
-13 -8 -17 23 -9 20 -30 -15 -100 -53 -108 -157 -196 -232 -197 -24 0 -26 2
-17 19 15 29 12 88 -6 122 -8 17 -13 36 -11 42 4 13 -83 58 -116 60 -58 3
-137 -4 -135 -11 2 -5 -14 -27 -34 -50 l-37 -41 -45 13 c-32 10 -59 11 -92 5
-48 -9 -58 -15 -108 -58 l-28 -26 15 31 c16 31 100 95 173 132 120 61 291 88
444 71 46 -5 85 -7 87 -5 3 3 -22 8 -56 12 -34 3 -61 9 -61 12 0 9 79 106 113
138 55 52 98 84 113 84 8 0 28 -21 44 -47z m150 -127 c41 -14 78 -22 82 -20 4
3 8 0 8 -6 0 -6 23 -22 52 -35 48 -22 54 -30 88 -99 21 -44 31 -77 25 -80 -5
-2 -1 -7 9 -11 10 -5 34 -25 52 -45 41 -45 115 -86 183 -101 30 -6 57 -19 63
-29 6 -10 16 -16 22 -14 15 5 42 -13 33 -22 -4 -4 -32 -2 -63 5 -197 44 -408
-117 -405 -309 0 -33 -2 -60 -5 -60 -3 0 -18 7 -34 15 -31 16 -64 64 -75 108
-4 15 -10 27 -14 27 -4 0 -15 -25 -25 -55 -16 -45 -26 -58 -58 -75 -35 -18
-57 -20 -217 -20 l-178 0 -11 -25 c-19 -41 -27 -29 -28 43 -1 37 -9 91 -18
121 -8 29 -13 57 -10 62 3 5 -2 9 -10 9 -21 0 -139 148 -172 217 -26 52 -36
114 -22 128 3 4 15 1 25 -6 15 -9 20 -22 19 -55 -1 -32 5 -49 23 -68 46 -49
143 -56 201 -16 14 10 46 20 71 24 26 4 66 19 90 35 40 25 133 109 135 121 0
3 12 30 27 60 23 50 37 93 52 173 3 15 7 27 8 27 2 0 36 -11 77 -24z m409 -93
c125 -63 166 -93 126 -93 -9 0 -13 -4 -10 -10 3 -5 -2 -21 -11 -35 l-16 -25
-59 54 c-32 30 -97 80 -144 110 -156 103 -92 102 114 -1z m-154 -5 c-4 -20 8
-33 85 -87 49 -35 90 -71 90 -80 0 -13 2 -14 9 -2 8 12 12 12 25 -2 9 -8 16
-21 16 -28 0 -6 10 -27 21 -46 12 -19 19 -37 16 -40 -11 -10 -82 20 -130 55
-71 51 -137 145 -162 230 -5 18 -2 22 15 22 16 0 19 -5 15 -22z m-754 -71 c51
-34 79 -82 79 -136 0 -64 -8 -73 -59 -65 -47 7 -60 19 -31 27 26 7 42 50 30
81 -13 35 -49 56 -93 56 -31 0 -46 -7 -72 -33 -27 -27 -37 -31 -54 -23 -28 12
-27 31 4 62 56 56 139 69 196 31z m1222 12 c26 -13 97 -80 97 -90 0 -4 -9 -10
-19 -14 -15 -4 -29 4 -55 32 -21 23 -39 34 -43 28 -10 -13 -73 -16 -73 -4 0 5
6 9 14 9 22 0 30 19 16 35 -10 13 -8 15 14 15 15 0 37 -5 49 -11z m-130 -43
c22 -17 21 -22 -3 -46 -37 -37 -21 -101 25 -99 14 0 16 2 5 6 -39 15 -40 64
-3 93 35 27 86 22 120 -13 l24 -23 -53 -36 c-100 -68 -96 -67 -145 -13 -49 53
-51 65 -22 111 23 38 26 39 52 20z m-1371 -45 c20 -8 25 -15 21 -31 -4 -16
-10 -19 -27 -13 -57 20 -134 -7 -166 -60 -44 -72 -14 -127 70 -127 42 0 52 4
67 26 18 28 10 54 -18 62 -11 4 -12 2 -1 -9 18 -19 15 -47 -7 -59 -32 -17 -66
-11 -91 15 -21 23 -22 28 -11 65 15 52 60 82 116 78 36 -3 42 -7 63 -48 33
-66 30 -114 -12 -156 -19 -19 -29 -34 -22 -34 18 1 42 23 64 58 l20 34 32 -40
c18 -22 32 -44 32 -49 -1 -4 7 -11 17 -15 10 -3 35 -32 56 -64 48 -72 56 -133
26 -182 l-21 -32 -201 1 c-170 0 -201 3 -206 16 -3 8 0 19 8 24 8 5 10 9 5 9
-6 0 6 17 25 38 l34 37 -38 -34 c-23 -22 -41 -31 -46 -25 -12 11 -41 124 -41
156 0 28 43 48 103 48 30 0 35 -3 30 -17 -6 -16 -5 -16 10 -4 9 7 27 11 40 7
36 -9 105 -73 115 -109 5 -17 15 -51 21 -74 7 -24 16 -43 22 -43 6 0 6 7 1 18
-5 9 -12 41 -15 70 -7 60 -39 109 -91 137 -19 11 -33 23 -30 27 3 4 -22 8 -56
8 -75 0 -93 9 -125 64 -31 53 -31 77 -1 142 23 50 61 86 101 97 26 7 94 1 127
-12z m256 3 c26 -18 29 -60 5 -86 -22 -25 -31 -23 -91 18 -46 30 -51 38 -40
51 28 34 90 42 126 17z m1552 -19 c5 -14 13 -38 16 -53 l7 -27 -32 30 c-54 50
-131 37 -154 -28 -7 -20 -15 -5 -18 37 -4 37 -2 40 31 52 19 7 59 13 88 13 47
1 53 -1 62 -24z m67 -34 c25 -37 30 -92 12 -153 -15 -55 -29 -47 -29 16 0 30
-9 82 -19 116 -17 55 -18 61 -3 58 9 -2 27 -18 39 -37z m-267 -26 c0 -34 -5
-47 -20 -55 -16 -8 -18 -15 -11 -29 15 -27 -35 -71 -87 -78 -34 -5 -42 -2 -51
16 -13 23 -12 24 42 36 44 9 87 62 87 106 0 38 6 49 27 49 9 0 13 -14 13 -45z
m191 -4 c23 -23 29 -38 29 -72 0 -69 -40 -97 -89 -63 -16 12 -22 23 -18 40 2
13 0 21 -4 18 -14 -8 -10 -37 7 -62 23 -33 93 -28 111 8 12 24 13 23 13 -17 0
-50 -17 -63 -84 -63 -34 0 -46 4 -46 15 0 8 -16 43 -35 78 -19 35 -35 68 -35
73 0 5 9 24 20 42 17 28 25 32 61 32 32 0 47 -6 70 -29z m-1623 -16 c32 -18
79 -39 106 -46 l49 -12 -28 -15 c-19 -9 -46 -13 -83 -10 -47 4 -60 10 -84 37
-24 27 -39 81 -22 81 3 0 31 -16 62 -35z m1379 19 c16 -41 -49 -94 -116 -94
-50 0 -56 22 -11 40 16 7 46 25 67 41 44 33 51 35 60 13z m64 -145 c6 -12 9
-30 6 -40 -4 -14 0 -19 13 -19 38 0 34 -37 -8 -77 -36 -35 -41 -44 -47 -106
-4 -37 -11 -70 -15 -72 -5 -3 -14 20 -20 51 -7 31 -20 81 -31 112 -15 44 -17
58 -7 71 47 60 83 101 90 101 4 0 12 -9 19 -21z m-1834 -81 c-43 -12 -47 -10
-47 39 l0 46 34 -39 c33 -38 33 -39 13 -46z m1557 69 c34 -11 42 -19 65 -71
18 -42 22 -61 13 -64 -7 -2 -12 -12 -12 -21 0 -10 -8 -33 -17 -52 -9 -18 -17
-56 -17 -84 -1 -34 -7 -56 -18 -67 -10 -10 -18 -31 -18 -48 0 -28 3 -30 38
-30 31 -1 43 -7 76 -46 l38 -45 -54 -57 c-63 -66 -75 -86 -99 -164 -19 -63
-13 -122 17 -180 9 -18 59 -74 110 -125 51 -50 100 -103 109 -117 22 -34 36
-96 22 -96 -15 0 -57 41 -57 55 0 16 -56 65 -75 65 -8 0 -37 9 -66 20 -57 23
-169 41 -169 28 0 -4 -6 -8 -13 -8 -8 0 -35 -14 -61 -32 l-48 -31 -67 73 c-58
64 -69 72 -86 62 -11 -5 -61 -15 -112 -20 -108 -12 -165 -35 -226 -91 l-45
-42 -46 31 c-25 17 -46 35 -46 40 0 4 14 37 30 72 33 70 58 205 46 251 -18 73
-146 161 -254 174 -39 4 -58 14 -102 53 l-55 49 40 17 c22 9 72 19 112 22 64
4 77 2 116 -21 24 -14 49 -33 57 -41 11 -14 5 -16 -59 -16 -39 0 -71 -4 -71
-9 0 -6 15 -21 33 -34 30 -23 40 -25 165 -25 74 -1 141 -6 152 -12 11 -6 25
-8 31 -4 18 11 59 -37 60 -70 0 -17 4 -40 8 -50 6 -17 11 -13 29 25 12 25 36
58 53 75 29 28 34 29 144 32 93 3 113 6 108 18 -3 8 -11 14 -18 14 -7 0 -15
10 -18 21 -5 20 -11 21 -95 17 -80 -4 -94 -7 -127 -32 -20 -16 -44 -45 -52
-64 l-15 -36 -25 45 c-31 58 -69 80 -146 85 -34 2 -56 1 -49 -2 22 -11 12 -24
-18 -24 -24 0 -42 11 -78 49 -66 69 -99 83 -183 79 -43 -2 -68 1 -66 7 2 6 92
12 228 15 143 3 231 9 244 17 31 17 62 55 78 91 l13 32 18 -40 c23 -52 69 -90
110 -90 22 0 40 -8 57 -26 58 -64 153 -79 269 -44 48 15 55 19 25 15 -128 -17
-167 -17 -210 -1 -24 10 -49 24 -55 32 -11 12 3 14 104 14 l116 0 6 28 c3 15
7 33 10 40 5 16 -60 16 -139 0 -53 -11 -60 -11 -68 5 -11 19 -35 23 -41 6 -3
-8 -10 -8 -26 2 -19 12 -22 23 -22 72 0 186 212 339 394 284z m502 -124 c-16
-90 -16 -100 -1 -58 7 22 14 50 14 63 1 32 30 28 83 -12 58 -44 86 -85 67 -97
-8 -5 -21 -9 -30 -9 -9 0 -42 -9 -74 -20 -63 -22 -75 -20 -76 13 -1 16 -4 12
-12 -13 l-11 -35 -6 45 c-4 25 -16 70 -28 100 -12 30 -22 56 -22 58 0 1 23 2
51 2 l51 0 -6 -37z m-2092 -77 c9 -38 15 -71 12 -74 -6 -5 -114 23 -123 32 -3
3 -3 16 1 30 8 32 74 102 85 90 4 -5 16 -40 25 -78z m1955 27 c45 -123 85
-373 62 -381 -7 -2 -3 -11 9 -22 12 -10 17 -21 11 -24 -13 -8 -42 4 -35 15 3
5 -2 9 -10 9 -10 0 -13 -6 -10 -15 4 -8 1 -15 -5 -15 -6 0 -11 11 -11 25 0 24
-2 25 -74 25 -77 0 -106 6 -106 21 0 13 42 28 120 44 62 12 63 13 22 14 -23 0
-70 -8 -104 -20 l-61 -20 -38 37 c-22 21 -39 42 -39 46 0 4 29 8 64 8 58 0 64
2 59 19 -4 14 1 21 19 24 l23 4 -22 8 c-27 9 -30 33 -7 49 8 7 18 32 20 56 3
25 7 55 10 67 5 27 52 83 69 83 7 0 22 -26 34 -57z m-255 -48 c4 -22 10 -49
13 -60 5 -18 4 -19 -12 -5 -17 13 -18 13 -10 0 4 -8 16 -24 25 -35 9 -11 20
-29 24 -40 5 -17 4 -18 -6 -5 -8 9 -30 15 -53 15 l-40 0 -3 51 c-2 34 4 66 18
100 24 54 32 50 44 -21z m571 -45 c-4 -11 -2 -20 4 -20 24 0 1 -139 -30 -176
-10 -12 -16 -7 -40 35 -42 73 -52 71 -13 -3 l34 -63 -45 -42 c-24 -22 -51 -41
-58 -41 -10 0 -18 33 -30 118 -10 64 -17 126 -17 138 0 21 14 28 120 59 67 20
83 19 75 -5z m-2298 -12 c29 -7 53 -16 53 -20 0 -3 -11 -19 -23 -35 -13 -15
-40 -49 -60 -76 l-36 -48 -17 33 c-9 18 -19 60 -22 95 l-5 63 29 0 c16 0 52
-6 81 -12z m539 -64 c-6 -15 -46 -20 -46 -5 0 5 6 14 14 20 8 7 18 24 22 39
l8 27 4 -33 c2 -19 1 -40 -2 -48z m-491 -118 c8 -88 13 -99 58 -123 l30 -15
-7 49 c-4 26 -10 59 -13 72 -5 21 -3 23 13 16 10 -4 55 -14 99 -22 110 -20
155 -32 155 -42 0 -16 -71 -43 -96 -37 -17 5 -24 2 -24 -9 0 -19 -93 -46 -143
-41 -40 4 -75 23 -120 65 -51 47 -52 56 -11 126 23 39 41 60 45 53 4 -6 10
-48 14 -92z m445 14 c0 -29 -115 -39 -224 -19 -128 23 -121 27 52 28 111 1
172 -3 172 -9z m-507 -109 c21 -22 55 -48 77 -57 l39 -18 -34 -23 c-19 -13
-46 -23 -61 -23 -19 0 -25 -4 -20 -15 3 -9 -5 -33 -18 -53 -14 -20 -30 -56
-37 -79 -14 -48 -20 -48 -43 1 -14 30 -14 44 -4 110 9 59 16 77 30 82 15 4 16
9 8 19 -8 10 -8 24 1 54 7 23 15 41 19 41 3 0 23 -18 43 -39z m2307 -84 c11
-61 10 -74 -5 -108 -10 -21 -21 -39 -24 -39 -3 0 -18 19 -33 43 -15 23 -47 56
-72 72 -43 29 -57 45 -37 45 8 0 31 18 105 82 l31 27 12 -27 c6 -15 17 -58 23
-95z m-1843 71 c21 -18 40 -34 42 -35 7 -5 -2 -10 -32 -17 -26 -6 -27 -5 -17
15 11 19 10 20 -11 14 -13 -4 -29 -14 -37 -21 -22 -22 -32 -16 -32 19 0 34 15
57 37 57 7 0 29 -14 50 -32z m1341 -5 c-3 -32 -32 -43 -42 -17 -7 19 10 44 31
44 10 0 13 -9 11 -27z m-1448 -28 c0 -21 -5 -25 -27 -24 -16 1 -39 4 -53 8
-25 8 -25 8 10 24 53 23 70 21 70 -8z m1515 3 c34 -15 32 -24 -12 -47 -21 -10
-47 -28 -57 -40 -11 -12 -31 -21 -45 -21 -23 -1 -24 -2 -10 -13 12 -9 14 -18
7 -37 -5 -14 -7 -45 -4 -69 4 -26 2 -49 -5 -57 -9 -11 -8 -14 3 -14 8 0 30
-22 48 -48 30 -44 38 -50 91 -61 l59 -13 -20 -26 c-11 -13 -20 -33 -20 -43 0
-11 -6 -19 -12 -19 -9 0 -10 -3 -2 -8 13 -8 26 -104 13 -96 -5 3 -16 20 -25
37 -9 18 -39 56 -67 85 -28 28 -47 52 -42 53 6 1 -1 4 -15 8 -35 10 -97 96
-116 159 -18 62 -10 110 32 193 l24 49 74 0 c69 0 74 1 69 20 -6 23 -3 24 32
8z m-1556 -44 c43 -7 43 -7 38 -42 -8 -47 -12 -49 -49 -22 -23 17 -45 23 -84
24 -49 0 -54 3 -54 22 0 34 26 37 149 18z m245 -37 c47 -76 45 -165 -5 -247
-20 -33 -22 -33 -36 -15 -13 19 -15 19 -27 3 -7 -10 -23 -18 -34 -18 l-21 0
20 -34 20 -34 -50 -42 c-28 -23 -55 -39 -61 -35 -12 7 -57 73 -94 136 l-26 46
25 -5 c14 -2 36 3 51 13 28 18 71 84 65 100 -1 6 -9 31 -15 57 -12 44 -12 46
5 37 10 -5 30 -9 45 -9 25 0 26 2 21 39 -5 37 -3 38 32 48 49 14 52 13 85 -40z
m104 22 c101 -44 162 -120 162 -202 0 -91 -54 -242 -91 -256 -22 -8 -22 -8 7
-15 27 -7 92 -49 105 -69 6 -8 -15 -73 -27 -86 -2 -2 -19 8 -39 23 -19 15 -35
24 -35 21 0 -4 -7 0 -15 9 -8 8 -15 17 -15 19 0 2 -18 24 -40 48 l-40 44 37 6
38 6 -41 2 c-23 0 -47 7 -54 15 -6 8 -19 12 -27 9 -11 -5 -14 -3 -9 6 5 7 -2
31 -14 54 l-22 42 36 59 c20 33 36 70 36 83 0 13 5 23 12 23 9 0 9 3 0 12 -7
7 -12 21 -12 33 0 11 -14 47 -30 79 -17 32 -30 61 -30 63 0 8 64 -9 108 -28z
m1441 5 c54 -23 96 -59 129 -112 l30 -49 -26 -34 c-35 -47 -113 -129 -135
-140 -31 -17 -37 0 -12 37 13 19 27 55 31 80 3 24 10 44 15 44 11 0 -32 68
-62 97 -46 47 -138 42 -194 -11 -30 -29 -35 -40 -35 -78 0 -53 26 -92 66 -102
32 -8 80 9 89 32 5 14 4 14 -13 -1 -41 -37 -108 -10 -126 50 -16 52 56 133
118 133 63 0 126 -63 126 -125 0 -52 -19 -100 -50 -130 -24 -23 -41 -30 -88
-33 -71 -5 -120 14 -155 59 -32 42 -51 117 -43 164 10 49 72 110 133 129 55
17 147 13 202 -10z m-1999 -45 c0 -16 4 -19 23 -13 21 6 20 5 -5 -23 -16 -16
-28 -33 -28 -39 0 -5 -7 -22 -15 -38 -9 -16 -12 -32 -7 -35 4 -3 14 -21 22
-40 7 -18 25 -47 38 -63 13 -16 23 -30 21 -32 -2 -1 -25 -14 -51 -28 l-47 -26
-55 71 c-31 38 -56 75 -56 82 0 42 39 115 87 163 53 53 73 59 73 21z m194 -31
c48 -42 62 -87 41 -128 -18 -34 -55 -56 -79 -47 -9 4 -25 21 -36 39 -14 24
-16 35 -8 46 9 10 8 12 -1 10 -14 -3 -44 79 -36 100 2 7 21 12 44 12 30 0 48
-8 75 -32z m-164 -54 c0 -9 20 -59 44 -110 50 -105 43 -120 -22 -52 -56 58
-68 88 -53 139 12 39 31 53 31 23z m85 -220 c8 -4 28 -25 44 -48 25 -37 28
-47 23 -104 -5 -75 -28 -99 -86 -88 -38 7 -89 43 -81 56 3 5 1 11 -5 15 -16
10 -12 40 11 69 24 30 69 35 94 10 15 -15 14 -18 -1 -43 l-16 -26 23 23 c27
25 20 49 -19 67 -12 5 -22 13 -22 16 0 14 -80 -32 -90 -50 -19 -37 -11 -72 23
-106 41 -41 78 -52 129 -38 36 10 38 9 38 -14 0 -28 -32 -43 -93 -43 -55 0
-106 26 -135 70 -33 49 -28 146 8 186 41 44 109 65 155 48z m1915 -24 c29 -16
60 -74 60 -114 0 -61 -45 -132 -102 -162 -61 -32 -188 -4 -188 41 0 33 9 35
52 13 35 -18 44 -19 81 -8 59 18 107 68 107 114 0 48 -36 86 -82 86 l-33 0 25
20 c39 31 14 23 -52 -15 -33 -20 -63 -34 -65 -31 -12 12 12 49 40 62 34 15
124 12 157 -6z m-1622 -56 c26 -40 27 -39 -40 -75 -38 -19 -38 -19 -58 1 -11
11 -20 23 -20 27 0 8 81 82 90 82 3 1 16 -16 28 -35z m760 -10 c53 -26 106
-78 99 -98 -2 -6 -13 -15 -25 -21 -12 -5 -22 -14 -22 -20 0 -6 -15 -33 -33
-60 -38 -56 -67 -134 -67 -178 0 -29 -1 -29 -18 -14 -10 10 -24 17 -30 17 -7
0 -53 16 -103 36 -88 36 -92 39 -111 83 -10 25 -33 67 -50 94 -29 45 -29 48
-14 71 66 102 258 148 374 90z m831 -3 c33 -31 38 -53 17 -89 -34 -62 -127
-82 -171 -37 -34 33 -36 109 -3 126 68 36 118 36 157 0z m-459 -31 c12 -8 10
-10 -9 -10 -38 0 -107 -38 -119 -65 -6 -14 -16 -25 -22 -25 -5 0 -10 -9 -10
-19 0 -38 -19 -31 -49 19 l-30 49 28 21 c16 11 39 24 52 29 32 13 140 13 159
1z m114 -61 c21 -18 33 -36 29 -45 -3 -8 1 -14 11 -14 20 0 21 -47 2 -73 -14
-18 -17 -17 -68 17 -29 20 -57 39 -63 43 -5 5 -27 9 -49 10 -21 1 -41 4 -44 7
-16 17 87 85 130 86 10 0 33 -14 52 -31z m-1378 -10 c19 -21 19 -21 -11 -45
-47 -38 -56 -28 -34 35 13 37 19 38 45 10z m189 5 c36 -17 62 -50 75 -93 8
-25 8 -25 9 7 1 39 7 39 48 4 32 -27 55 -92 33 -92 -18 0 -70 30 -70 40 0 5
-7 7 -15 4 -13 -5 -86 41 -165 105 -21 17 -23 22 -10 31 22 14 57 12 95 -6z
m828 -19 c4 -8 2 -17 -3 -20 -19 -11 -10 -25 15 -25 19 0 29 -8 39 -32 24 -55
50 -180 48 -233 l-1 -50 14 38 c11 29 12 44 4 59 -6 10 -9 31 -8 46 2 15 0 33
-4 39 -4 7 -10 34 -13 60 -4 38 -1 55 16 82 17 27 24 31 31 20 5 -8 9 -27 9
-42 0 -32 24 -94 46 -119 9 -9 13 -22 9 -27 -3 -7 3 -11 15 -11 11 0 39 -9 60
-19 33 -16 46 -17 80 -9 22 6 43 8 47 5 10 -11 -88 -117 -126 -136 -45 -23
-76 -29 -173 -36 -77 -6 -206 9 -222 25 -5 5 6 13 25 19 l34 11 -42 -4 c-34
-3 -42 -1 -46 15 -5 17 1 19 56 20 34 1 73 5 87 9 25 8 25 8 -5 9 -16 1 -55 8
-85 15 l-55 13 0 38 c0 30 5 42 22 50 19 10 20 12 5 21 -14 9 -12 17 17 65 43
71 80 119 90 119 5 0 11 -7 14 -15z m-467 -107 c9 -21 15 -41 12 -44 -5 -4
-65 28 -95 50 -1 1 3 21 9 45 l11 44 23 -28 c12 -16 30 -46 40 -67z m-471 42
c16 -16 27 -31 24 -34 -15 -13 -51 -26 -59 -21 -12 7 -13 85 -2 85 5 0 21 -13
37 -30z m-60 11 c-3 -5 1 -27 8 -49 11 -33 11 -42 -1 -60 -21 -31 -35 -27 -60
17 -29 52 -28 64 11 84 37 18 51 21 42 8z m1203 3 c13 -4 22 -14 22 -26 0 -62
67 -111 123 -90 35 13 57 2 57 -28 0 -25 -58 -43 -106 -34 -66 12 -134 90
-134 154 0 32 2 33 38 24z m270 -26 c2 -10 -6 -38 -18 -65 l-21 -47 -21 21
-21 21 22 28 c11 14 21 35 21 46 0 24 33 21 38 -4z m-163 -21 c27 -18 47 -37
47 -42 -2 -15 -53 -18 -78 -5 -36 20 -55 80 -25 80 5 0 30 -15 56 -33z m-1177
-44 c-12 -15 -56 -17 -76 -4 -11 6 -11 10 0 18 32 27 100 14 76 -14z m256 16
c15 -12 26 -30 26 -44 0 -22 -2 -23 -30 -14 -19 7 -30 18 -30 29 0 10 -3 25
-6 34 -8 22 8 20 40 -5z m-194 -37 l23 -19 -35 -21 c-38 -24 -108 -29 -152
-12 -21 8 -24 13 -17 32 8 20 14 23 60 20 27 -2 58 1 68 7 24 14 27 14 53 -7z
m314 -28 c59 -27 70 -46 36 -64 -15 -8 -20 -8 -20 2 0 11 -2 11 -8 0 -5 -7
-16 -10 -25 -6 -20 7 -22 20 -4 27 7 2 0 10 -15 17 -16 8 -28 21 -28 32 0 23
-3 23 64 -8z m-210 -24 c37 -16 84 -34 105 -41 39 -11 73 -52 64 -76 -3 -8 3
-13 14 -13 25 0 63 -28 63 -45 0 -21 -88 -44 -194 -51 -50 -3 -93 -8 -95 -10
-9 -8 128 -4 183 7 32 6 60 8 62 6 7 -7 -88 -64 -129 -77 -35 -11 -43 -9 -115
26 l-77 38 35 6 35 7 -36 2 c-25 1 -57 14 -97 41 -80 54 -122 102 -122 141 0
29 2 31 28 24 77 -22 97 -21 145 4 26 13 47 28 47 32 0 14 14 11 84 -21z
m1124 -106 c-2 -2 -21 -11 -42 -19 l-38 -16 38 47 c39 47 39 47 42 20 2 -15 2
-30 0 -32z m-850 22 c5 -5 -11 -66 -17 -66 -8 1 -41 30 -66 59 l-20 24 50 -8
c28 -4 51 -8 53 -9z m131 -22 c5 -4 -93 -64 -106 -64 -14 0 -16 22 -7 58 6 21
10 22 58 16 28 -4 53 -8 55 -10z m-606 -86 c7 -10 17 -18 24 -18 19 0 93 -70
93 -87 0 -16 -23 -11 -73 14 -39 19 -107 82 -107 98 0 7 -4 15 -9 17 -5 2 -13
16 -17 33 l-7 29 42 -33 c24 -19 48 -42 54 -53z m736 60 c12 -32 -21 -54 -92
-63 -58 -7 -127 0 -127 13 0 4 28 22 62 40 77 40 144 44 157 10z m571 -17 c0
-5 -18 -32 -39 -59 -58 -73 -126 -104 -222 -100 l-74 3 85 44 c47 24 99 54
116 67 48 37 134 65 134 45z m-397 -58 l58 -6 -21 -22 c-39 -41 -64 -49 -94
-30 -15 10 -36 31 -48 48 l-22 30 35 -7 c19 -4 60 -9 92 -13z m207 -3 c-39
-30 -165 -90 -188 -90 -30 0 -28 11 13 51 35 33 62 41 190 57 6 1 -1 -7 -15
-18z"/>
<path d="M1820 1835 c-9 -10 -7 -20 5 -39 20 -30 28 -32 44 -12 9 11 9 19 -1
35 -17 27 -34 33 -48 16z"/>
<path d="M2178 1833 c7 -3 16 -2 19 1 4 3 -2 6 -13 5 -11 0 -14 -3 -6 -6z"/>
<path d="M666 1345 c3 -16 12 -37 20 -46 8 -9 12 -18 9 -21 -3 -3 5 -3 19 -1
27 6 40 37 22 52 -9 8 -19 6 -32 -3 -17 -13 -20 -12 -32 17 l-12 32 6 -30z"/>
<path d="M1688 2973 c7 -3 16 -2 19 1 4 3 -2 6 -13 5 -11 0 -14 -3 -6 -6z"/>
<path d="M2170 2732 c0 -4 21 -28 47 -52 l46 -45 -43 53 c-44 53 -50 58 -50
44z"/>
<path d="M1961 2646 c11 -10 89 -15 89 -6 0 5 -21 10 -47 10 -25 0 -44 -2 -42
-4z"/>
<path d="M2110 2612 c30 -10 74 -28 98 -41 23 -12 42 -19 42 -16 0 10 -124 64
-160 70 -24 4 -18 0 20 -13z"/>
<path d="M409 2593 c-13 -16 -12 -17 4 -4 16 13 21 21 13 21 -2 0 -10 -8 -17
-17z"/>
<path d="M375 2540 c-9 -16 -13 -30 -11 -30 3 0 12 14 21 30 9 17 13 30 11 30
-3 0 -12 -13 -21 -30z"/>
<path d="M256 1175 c9 -14 21 -25 27 -25 6 0 0 11 -13 25 -13 14 -25 25 -27
25 -2 0 4 -11 13 -25z"/>
<path d="M1488 403 c7 -3 16 -2 19 1 4 3 -2 6 -13 5 -11 0 -14 -3 -6 -6z"/>
</g>
</svg>
